<svg width="393" height="239" viewBox="0 0 393 239" fill="none" xmlns="http://www.w3.org/2000/svg">
<path fill-rule="evenodd" clip-rule="evenodd" d="M178.611 92.6179L169.289 86.0024L225.221 46.309L211.303 36.4314C203.544 30.9256 190.966 30.9256 183.208 36.4314L113.358 86.0024L197.255 145.542L299.796 72.7712L225.35 19.9382C209.834 8.92667 184.677 8.92667 169.16 19.9382L94.7139 72.7712L104.036 79.3868L176.184 28.1848C187.821 19.9261 206.689 19.9261 218.326 28.1848L281.153 72.7712L197.255 132.311L194.957 130.68C191.078 127.927 191.078 123.464 194.957 120.711L262.509 72.7712L234.543 52.9245L178.611 92.6179ZM206.577 46.309L204.279 44.678C200.4 41.9251 194.11 41.9251 190.231 44.678L132.002 86.0024L164.564 109.111C172.322 114.617 184.9 114.617 192.659 109.111L243.865 72.7712L234.543 66.1557L185.635 100.865C181.756 103.617 175.467 103.617 171.588 100.865L150.645 86.0024L206.577 46.309Z" fill="white"/>
<path d="M316.945 190.367C319.852 190.367 322.208 188.011 322.208 185.104C322.208 182.198 319.852 179.842 316.945 179.842C314.039 179.842 311.682 182.198 311.682 185.104C311.682 188.011 314.039 190.367 316.945 190.367Z" fill="white"/>
<path d="M23.3912 219.021C20.6027 219.021 18.745 219.019 17.3105 218.921C15.9176 218.826 15.2678 218.657 14.8583 218.487C13.1388 217.775 11.7729 216.409 11.0602 214.689C10.8906 214.28 10.7215 213.63 10.6267 212.237C10.5285 210.802 10.5262 208.945 10.5262 206.156C10.5262 203.367 10.5285 201.51 10.6267 200.075C10.7215 198.683 10.8906 198.033 11.0602 197.623C11.7729 195.904 13.1388 194.538 14.8583 193.825C15.2678 193.656 15.9176 193.487 17.3105 193.392C18.745 193.294 20.6027 193.291 23.3912 193.291H28.6541C28.977 193.291 29.2389 193.029 29.2389 192.706V184.52C29.2389 184.197 28.977 183.935 28.6541 183.935H23.2353C20.6432 183.935 18.4652 183.935 16.6737 184.057C14.8041 184.185 13.0172 184.461 11.2778 185.181C7.26546 186.843 4.07835 190.031 2.41655 194.043C1.69587 195.782 1.41948 197.569 1.29213 199.439C1.16992 201.23 1.16992 203.408 1.16992 206V206.312C1.16992 208.904 1.16992 211.082 1.29213 212.874C1.41948 214.743 1.69587 216.53 2.41655 218.27C4.07835 222.282 7.26546 225.469 11.2778 227.131C13.0172 227.852 14.8041 228.128 16.6737 228.255C18.4652 228.377 20.6432 228.377 23.2353 228.377H28.6541C28.977 228.377 29.2389 228.116 29.2389 227.793V219.606C29.2389 219.283 28.977 219.021 28.6541 219.021H23.3912Z" fill="white"/>
<path fill-rule="evenodd" clip-rule="evenodd" d="M126.895 228.377C126.572 228.377 126.311 228.639 126.311 228.962V237.149C126.311 237.472 126.049 237.734 125.726 237.734H117.539C117.216 237.734 116.954 237.472 116.954 237.149V193.876C116.954 193.553 117.216 193.291 117.539 193.291H127.657C128.569 193.291 129.288 193.291 129.935 193.342C137.964 193.974 144.341 200.351 144.973 208.38C145.023 209.019 145.023 209.729 145.023 210.627V211.011C145.023 211.923 145.024 212.642 144.973 213.289C144.341 221.318 137.964 227.695 129.935 228.327C129.624 228.351 129.298 228.364 128.941 228.371C128.554 228.378 128.132 228.378 127.657 228.377L126.895 228.377ZM127.48 202.648C128.655 202.648 128.972 202.651 129.2 202.669C132.641 202.94 135.374 205.673 135.645 209.114C135.663 209.343 135.667 209.659 135.667 210.834C135.667 212.009 135.663 212.326 135.645 212.554C135.374 215.996 132.641 218.729 129.2 218.999C128.972 219.017 128.655 219.021 127.48 219.021H126.895C126.572 219.021 126.311 218.759 126.311 218.436V203.232C126.311 202.909 126.572 202.648 126.895 202.648H127.48Z" fill="white"/>
<path fill-rule="evenodd" clip-rule="evenodd" d="M381.27 192.706C381.27 193.029 381.008 193.291 380.685 193.291L379.923 193.291C379.011 193.291 378.292 193.291 377.646 193.342C369.617 193.974 363.24 200.351 362.608 208.38C362.557 209.019 362.557 209.729 362.557 210.627V211.041C362.557 211.939 362.557 212.649 362.608 213.289C363.24 221.318 369.617 227.695 377.646 228.327C378.292 228.378 379.011 228.378 379.923 228.377H390.042C390.365 228.377 390.626 228.116 390.626 227.793V184.52C390.626 184.197 390.365 183.935 390.042 183.935H381.855C381.532 183.935 381.27 184.197 381.27 184.52V192.706ZM378.38 218.999C378.609 219.017 378.925 219.021 380.1 219.021H380.685C381.008 219.021 381.27 218.759 381.27 218.436V203.232C381.27 202.909 381.008 202.648 380.685 202.648H380.1C378.925 202.648 378.609 202.651 378.38 202.669C374.939 202.94 372.206 205.673 371.935 209.114C371.917 209.343 371.914 209.659 371.914 210.834C371.914 212.009 371.917 212.326 371.935 212.554C372.206 215.995 374.939 218.729 378.38 218.999Z" fill="white"/>
<path d="M195.313 184.52C195.313 184.197 195.052 183.935 194.729 183.935H186.542C186.219 183.935 185.957 184.197 185.957 184.52V213.173C185.957 222.02 192.973 229.228 201.745 229.537C202.068 229.548 202.331 229.285 202.331 228.962V220.775C202.331 220.452 202.068 220.193 201.746 220.167C198.144 219.87 195.313 216.852 195.313 213.173V203.232C195.313 202.909 195.575 202.648 195.898 202.648H201.746C202.069 202.648 202.331 202.386 202.331 202.063V193.876C202.331 193.553 202.069 193.291 201.746 193.291H195.898C195.575 193.291 195.313 193.029 195.313 192.706V184.52Z" fill="white"/>
<path d="M250.282 193.942C250.282 194.371 250.73 194.656 251.128 194.494C252.862 193.788 254.744 193.371 256.714 193.301C257.037 193.29 257.299 193.553 257.299 193.876V202.063C257.299 202.386 257.036 202.645 256.714 202.672C253.113 202.969 250.282 205.986 250.282 209.665V227.793C250.282 228.116 250.02 228.377 249.697 228.377H241.51C241.187 228.377 240.925 228.116 240.925 227.793V193.876C240.925 193.553 241.187 193.291 241.51 193.291H249.697C250.02 193.291 250.282 193.553 250.282 193.876V193.942Z" fill="white"/>
<path fill-rule="evenodd" clip-rule="evenodd" d="M61.9859 215.512C61.9859 223.263 55.7025 229.547 47.9515 229.547C40.2004 229.547 33.917 223.263 33.917 215.512V206.156C33.917 198.405 40.2004 192.122 47.9515 192.122C55.7025 192.122 61.9859 198.405 61.9859 206.156V215.512ZM47.9515 220.191C50.535 220.191 52.6296 218.096 52.6296 215.512V206.156C52.6296 203.573 50.535 201.478 47.9515 201.478C45.368 201.478 43.2733 203.573 43.2733 206.156V215.512C43.2733 218.096 45.368 220.191 47.9515 220.191Z" fill="white"/>
<path fill-rule="evenodd" clip-rule="evenodd" d="M224.552 219.021C224.084 219.021 223.751 219.021 223.507 219.019C223.138 219.016 222.969 219.01 222.832 218.999C220.82 218.841 219.05 217.841 217.873 216.35C217.594 215.997 217.868 215.512 218.318 215.512H234.493C234.816 215.512 235.078 215.251 235.078 214.928V206.156C235.078 198.405 228.794 192.122 221.043 192.122C213.292 192.122 207.009 198.405 207.009 206.156V211.011C207.009 211.923 207.008 212.642 207.059 213.289C207.691 221.318 214.068 227.695 222.097 228.327C222.744 228.378 223.463 228.378 224.375 228.377H229.815C230.138 228.377 230.4 228.116 230.4 227.793V219.606C230.4 219.283 230.138 219.021 229.815 219.021H224.552ZM225.685 205.573C225.725 205.893 225.46 206.156 225.137 206.156H216.95C216.627 206.156 216.361 205.893 216.401 205.573C216.688 203.264 218.657 201.478 221.043 201.478C223.429 201.478 225.398 203.264 225.685 205.573Z" fill="white"/>
<path d="M164.905 228.377C157.154 228.377 150.871 222.094 150.871 214.343V193.876C150.871 193.553 151.133 193.291 151.456 193.291H159.642C159.965 193.291 160.227 193.553 160.227 193.876V214.343C160.227 216.927 162.322 219.021 164.905 219.021C167.489 219.021 169.583 216.927 169.583 214.343V193.876C169.583 193.553 169.845 193.291 170.168 193.291H178.355C178.678 193.291 178.94 193.553 178.94 193.876V227.793C178.94 228.116 178.678 228.377 178.355 228.377H164.905Z" fill="white"/>
<path d="M337.997 207.326V227.793C337.997 228.116 337.735 228.377 337.412 228.377H329.226C328.903 228.377 328.641 228.116 328.641 227.793V193.876C328.641 193.553 328.903 193.291 329.226 193.291H342.675C350.426 193.291 356.71 199.575 356.71 207.326V227.793C356.71 228.116 356.448 228.377 356.125 228.377H347.938C347.615 228.377 347.353 228.116 347.353 227.793V207.326C347.353 204.742 345.259 202.648 342.675 202.648C340.092 202.648 337.997 204.742 337.997 207.326Z" fill="white"/>
<path d="M276.012 193.291C278.948 193.291 281.655 194.275 283.82 195.931C284.043 196.102 284.354 196.102 284.576 195.931C286.742 194.275 289.449 193.291 292.385 193.291C299.49 193.291 305.25 199.051 305.25 206.156V227.793C305.25 228.116 304.988 228.377 304.665 228.377H296.478C296.155 228.377 295.894 228.116 295.894 227.793V206.156C295.894 204.218 294.323 202.648 292.385 202.648C290.447 202.648 288.876 204.218 288.876 206.156V227.793C288.876 228.116 288.615 228.377 288.292 228.377H280.105C279.782 228.377 279.52 228.116 279.52 227.793V206.156C279.52 204.218 277.949 202.648 276.012 202.648C274.074 202.648 272.503 204.218 272.503 206.156V227.793C272.503 228.116 272.241 228.377 271.918 228.377H263.731C263.408 228.377 263.147 228.116 263.147 227.793V193.876C263.147 193.553 263.408 193.291 263.731 193.291H276.012Z" fill="white"/>
<path d="M89.2634 195.931C89.0407 196.102 88.73 196.102 88.5073 195.931C86.342 194.275 83.6351 193.291 80.6986 193.291H68.4184C68.0954 193.291 67.8336 193.553 67.8336 193.876V227.793C67.8336 228.116 68.0954 228.377 68.4184 228.377H76.6052C76.9281 228.377 77.1899 228.116 77.1899 227.793V206.156C77.1899 204.218 78.7609 202.648 80.6986 202.648C82.6362 202.648 84.2072 204.218 84.2072 206.156V227.793C84.2072 228.116 84.469 228.377 84.7919 228.377H92.9787C93.3017 228.377 93.5635 228.116 93.5635 227.793V206.156C93.5635 204.218 95.1345 202.648 97.0721 202.648C99.0097 202.648 100.581 204.218 100.581 206.156V227.793C100.581 228.116 100.843 228.377 101.165 228.377H109.352C109.675 228.377 109.937 228.116 109.937 227.793V206.156C109.937 199.051 104.177 193.291 97.0721 193.291C94.1356 193.291 91.4287 194.275 89.2634 195.931Z" fill="white"/>
<path d="M312.852 228.377C312.529 228.377 312.267 228.116 312.267 227.793V193.876C312.267 193.553 312.529 193.291 312.852 193.291H321.039C321.362 193.291 321.624 193.553 321.624 193.876V227.793C321.624 228.116 321.362 228.377 321.039 228.377H312.852Z" fill="white"/>
</svg>
